<svg width="16" height="13" viewBox="0 0 16 13" fill="none" xmlns="http://www.w3.org/2000/svg">
<path d="M3.89519 5.01344L4.65259 4.14785C3.46239 2.74125 1.73119 1.98385 0 1.98385V3.06585C1.4066 3.06585 2.81319 3.71505 3.78699 4.79704L3.89519 5.01344ZM12.0102 10.0988C10.7118 10.0988 9.52157 9.55783 8.54778 8.69223L7.89858 9.55783C8.98057 10.6398 10.4954 11.1808 12.0102 11.1808V12.8038L15.7972 10.6398L12.0102 8.47583V10.0988ZM12.0102 3.60685V5.22984L15.7972 3.06585L12.0102 0.901855V2.52485C10.279 2.52485 8.54778 3.28225 7.46578 4.68884L3.78699 8.90863C2.81319 9.99063 1.4066 10.6398 0 10.6398V11.7218C1.73119 11.7218 3.46239 10.9644 4.54439 9.55783L8.22318 5.33804C9.19697 4.25605 10.6036 3.60685 12.0102 3.60685Z" fill="white"/>
</svg>
